<?xml version="1.0" encoding="UTF-8" standalone="no"?>
<svg xmlns="http://www.w3.org/2000/svg" xmlns:xlink="http://www.w3.org/1999/xlink" height="1673.3705" width="353.34375">
  <defs>
    <pattern id="b" xlink:href="#a"/>
    <pattern id="a" width="1.5" patternUnits="userSpaceOnUse" height="1">
      <rect y="-.5" width="1" x="0" height="2"/>
    </pattern>
  </defs>
  <g>
    <g stroke="#000">
      <path fill="#fff" d="m165.15625 21.375c-14.62204 0.807702-35.46875 35.59375-35.46875 35.59375-8.51065 14.74087-28.78205 70.21098-31.8125 80.3125-3.03046 10.10152-24.75 79.89565-24.75 109.59375 0 9.7754-0.75 24.25-0.75 24.25v972.8125c0 4.8214 6.625 67.1473 6.625 74.4687 0 7.3215 8.00893 65.893 8.1875 68.75 0.17857 2.8571 7.32143 68.5848 7.5 73.4063 0.17857 4.8214 6.4375 52.4867 7.6875 54.0937 1.25 1.6071 9.09821 7.143 24.8125 12.5 15.71429 5.3571 37.5 6.25 37.5 6.25s21.75445-0.8929 37.46875-6.25c15.7143-5.357 23.5625-10.8929 24.8125-12.5 1.25-1.607 7.509-49.2723 7.6875-54.0937 0.1786-4.8215 7.3215-70.5492 7.5-73.4063 0.1786-2.857 8.21875-61.4286 8.21875-68.75s6.59375-69.6473 6.59375-74.4687v-972.8125s-0.71875-14.14848-0.71875-24.25c0-37.24438-21.7195-99.49222-24.75-109.59375-3.0304-10.10152-21.2338-61.11699-31.8125-80.3125 0 0-21.21685-35.34121-33.84375-35.59375-0.22885-0.004577-0.4554-0.012821-0.6875 0z"/>
      <g stroke-width="1.5">
        <g fill="#fff">
          <rect y="241.71454" width="20.982143" x="143.88142" height="24.732143"/>
          <rect y="229.75024" width="14.553572" x="148.43501" height="11.875"/>
          <rect y="241.71454" width="21.339287" x="165.66713" height="24.732143"/>
          <rect y="229.75024" width="14.553572" x="168.07784" height="11.875"/>
          <rect y="287.42883" width="20.982143" x="143.88142" height="24.732143"/>
          <rect y="275.46454" width="14.553572" x="148.43501" height="11.875"/>
          <rect y="287.42883" width="21.339287" x="165.66713" height="24.732143"/>
          <rect y="275.46454" width="14.553572" x="168.07784" height="11.875"/>
          <rect y="336.71454" width="20.982143" x="143.88142" height="24.732143"/>
          <rect y="324.75024" width="14.553572" x="148.43501" height="11.875"/>
          <rect y="336.71454" width="21.339287" x="165.66713" height="24.732143"/>
          <rect y="324.75024" width="14.553572" x="168.07784" height="11.875"/>
          <rect y="384.92883" width="20.982143" x="143.88142" height="24.732143"/>
          <rect y="372.96454" width="14.553572" x="148.43501" height="11.875"/>
          <rect y="384.92883" width="21.339287" x="165.66713" height="24.732143"/>
          <rect y="372.96454" width="14.553572" x="168.07784" height="11.875"/>
          <rect y="399.57172" width="20.982143" x="208.88142" height="24.732143"/>
          <rect y="387.60742" width="14.553572" x="213.43495" height="11.875"/>
          <rect y="399.57172" width="21.339287" x="230.66713" height="24.732143"/>
          <rect y="387.60742" width="14.553572" x="233.0779" height="11.875"/>
          <rect y="351.08438" width="20.982143" x="208.88142" height="24.732143"/>
          <rect y="339.12006" width="14.553572" x="213.43495" height="11.875"/>
          <rect y="351.08438" width="21.339287" x="230.66713" height="24.732143"/>
          <rect y="339.12006" width="14.553572" x="233.0779" height="11.875"/>
          <rect y="304.36481" width="20.982143" x="208.88142" height="24.732143"/>
          <rect y="292.40051" width="14.553572" x="213.43495" height="11.875"/>
          <rect y="304.36481" width="21.339287" x="230.66713" height="24.732143"/>
          <rect y="292.40051" width="14.553572" x="233.0779" height="11.875"/>
          <rect y="256.38257" width="20.982143" x="207.11366" height="24.732143"/>
          <rect y="244.41827" width="14.553572" x="211.66725" height="11.875"/>
          <rect y="256.38257" width="21.339287" x="228.89943" height="24.732143"/>
          <rect y="244.41827" width="14.553572" x="231.31007" height="11.875"/>
          <rect y="391.49484" width="20.982143" x="78.72657" height="24.732143"/>
          <rect y="379.53052" width="14.553572" x="83.280159" height="11.875"/>
          <rect y="391.49484" width="21.339287" x="100.51228" height="24.732143"/>
          <rect y="379.53052" width="14.553572" x="102.92298" height="11.875"/>
          <rect y="344.01764" width="20.982143" x="78.72657" height="24.732143"/>
          <rect y="332.05334" width="14.553572" x="83.280159" height="11.875"/>
          <rect y="344.01764" width="21.339287" x="100.51228" height="24.732143"/>
          <rect y="332.05334" width="14.553572" x="102.92298" height="11.875"/>
          <rect y="296.54047" width="20.982143" x="78.72657" height="24.732143"/>
          <rect y="284.5762" width="14.553572" x="83.280159" height="11.875"/>
          <rect y="296.54047" width="21.339287" x="100.51228" height="24.732143"/>
          <rect y="284.5762" width="14.553572" x="102.92298" height="11.875"/>
          <rect y="585.28601" width="20.982143" x="208.88142" height="24.732143"/>
          <rect y="573.32166" width="14.553572" x="213.43495" height="11.875"/>
          <rect y="585.28601" width="21.339287" x="230.66713" height="24.732143"/>
          <rect y="573.32166" width="14.553572" x="233.0779" height="11.875"/>
          <rect y="634.57172" width="20.982143" x="208.88142" height="24.732143"/>
          <rect y="622.60742" width="14.553572" x="213.43495" height="11.875"/>
          <rect y="634.57172" width="21.339287" x="230.66713" height="24.732143"/>
          <rect y="622.60742" width="14.553572" x="233.0779" height="11.875"/>
          <rect y="682.42883" width="20.982143" x="208.88142" height="24.732143"/>
          <rect y="670.46454" width="14.553572" x="213.43495" height="11.875"/>
          <rect y="682.42883" width="21.339287" x="230.66713" height="24.732143"/>
          <rect y="670.46454" width="14.553572" x="233.0779" height="11.875"/>
          <rect y="682.42883" width="20.982143" x="78.881416" height="24.732143"/>
          <rect y="670.46454" width="14.553572" x="83.435005" height="11.875"/>
          <rect y="682.42883" width="21.339287" x="100.66712" height="24.732143"/>
          <rect y="670.46454" width="14.553572" x="103.07783" height="11.875"/>
          <rect y="632.42883" width="20.982143" x="78.881416" height="24.732143"/>
          <rect y="620.46454" width="14.553572" x="83.435005" height="11.875"/>
          <rect y="632.42883" width="21.339287" x="100.66712" height="24.732143"/>
          <rect y="620.46454" width="14.553572" x="103.07783" height="11.875"/>
          <rect y="584.57166" width="20.982143" x="78.881416" height="24.732143"/>
          <rect y="572.60742" width="14.553572" x="83.435005" height="11.875"/>
          <rect y="584.57166" width="21.339287" x="100.66712" height="24.732143"/>
          <rect y="572.60742" width="14.553572" x="103.07783" height="11.875"/>
          <rect y="576.00024" width="20.982143" x="143.16713" height="24.732143"/>
          <rect y="564.03601" width="14.553572" x="147.72072" height="11.875"/>
          <rect y="576.00024" width="21.339287" x="164.95284" height="24.732143"/>
          <rect y="564.03601" width="14.553572" x="167.36354" height="11.875"/>
          <rect y="624.57178" width="20.982143" x="143.16713" height="24.732143"/>
          <rect y="612.60742" width="14.553572" x="147.72072" height="11.875"/>
          <rect y="624.57178" width="21.339287" x="164.95284" height="24.732143"/>
          <rect y="612.60742" width="14.553572" x="167.36354" height="11.875"/>
          <rect y="670.28601" width="20.982143" x="143.16713" height="24.732143"/>
          <rect y="658.32172" width="14.553572" x="147.72072" height="11.875"/>
          <rect y="670.28601" width="21.339287" x="164.95284" height="24.732143"/>
          <rect y="658.32172" width="14.553572" x="167.36354" height="11.875"/>
          <rect y="724.48669" width="16.0688" x="80.54554" height="20.966373"/>
          <rect y="724.48669" width="16.0688" x="96.708015" height="20.966373"/>
          <rect y="724.48669" width="16.0688" x="216.91615" height="20.966373"/>
          <rect y="724.48669" width="16.0688" x="233.07863" height="20.966373"/>
          <rect y="714.89026" width="16.0688" x="140.14455" height="20.966373"/>
          <rect y="714.89026" width="16.0688" x="156.30702" height="20.966373"/>
          <rect y="714.89026" width="16.0688" x="172.9745" height="20.966373"/>
          <rect y="740.14404" width="16.0688" x="148.22578" height="20.966373"/>
          <rect y="740.14404" width="16.0688" x="164.3882" height="20.966373"/>
          <rect y="740.14404" width="16.0688" x="181.05574" height="20.966373"/>
          <rect y="740.14404" width="16.0688" x="131.55824" height="20.966373"/>
          <rect y="750.75067" width="16.0688" x="80.54554" height="20.966373"/>
          <rect y="750.75067" width="16.0688" x="96.708015" height="20.966373"/>
          <rect y="750.75067" width="16.0688" x="216.91615" height="20.966373"/>
          <rect y="750.75067" width="16.0688" x="233.07863" height="20.966373"/>
          <rect y="765.90295" width="16.0688" x="148.22578" height="20.966373"/>
          <rect y="765.90295" width="16.0688" x="164.3882" height="20.966373"/>
          <rect y="765.90295" width="16.0688" x="181.05574" height="20.966373"/>
          <rect y="765.90295" width="16.0688" x="131.55824" height="20.966373"/>
          <rect y="776.50958" width="16.0688" x="80.54554" height="20.966373"/>
          <rect y="776.50958" width="16.0688" x="96.708015" height="20.966373"/>
          <rect y="776.50958" width="16.0688" x="216.91615" height="20.966373"/>
          <rect y="776.50958" width="16.0688" x="233.07863" height="20.966373"/>
          <rect y="791.15674" width="16.0688" x="148.22578" height="20.966373"/>
          <rect y="791.15674" width="16.0688" x="164.3882" height="20.966373"/>
          <rect y="791.15674" width="16.0688" x="181.05574" height="20.966373"/>
          <rect y="791.15674" width="16.0688" x="131.55824" height="20.966373"/>
          <rect y="801.76337" width="16.0688" x="80.54554" height="20.966373"/>
          <rect y="801.76337" width="16.0688" x="96.708015" height="20.966373"/>
          <rect y="801.76337" width="16.0688" x="216.91615" height="20.966373"/>
          <rect y="801.76337" width="16.0688" x="233.07863" height="20.966373"/>
          <rect y="816.91565" width="16.0688" x="148.22578" height="20.966373"/>
          <rect y="816.91565" width="16.0688" x="164.3882" height="20.966373"/>
          <rect y="816.91565" width="16.0688" x="181.05574" height="20.966373"/>
          <rect y="816.91565" width="16.0688" x="131.55824" height="20.966373"/>
          <rect y="827.52228" width="16.0688" x="80.54554" height="20.966373"/>
          <rect y="827.52228" width="16.0688" x="96.708015" height="20.966373"/>
          <rect y="827.52228" width="16.0688" x="216.91615" height="20.966373"/>
          <rect y="827.52228" width="16.0688" x="233.07863" height="20.966373"/>
          <rect y="841.1593" width="16.0688" x="148.22578" height="20.966373"/>
          <rect y="841.1593" width="16.0688" x="164.3882" height="20.966373"/>
          <rect y="841.1593" width="16.0688" x="181.05574" height="20.966373"/>
          <rect y="841.1593" width="16.0688" x="131.55824" height="20.966373"/>
          <rect y="851.76593" width="16.0688" x="80.54554" height="20.966373"/>
          <rect y="851.76593" width="16.0688" x="96.708015" height="20.966373"/>
          <rect y="851.76593" width="16.0688" x="216.91615" height="20.966373"/>
          <rect y="851.76593" width="16.0688" x="233.07863" height="20.966373"/>
          <rect y="866.41309" width="16.0688" x="148.22578" height="20.966373"/>
          <rect y="866.41309" width="16.0688" x="164.3882" height="20.966373"/>
          <rect y="866.41309" width="16.0688" x="181.05574" height="20.966373"/>
          <rect y="866.41309" width="16.0688" x="131.55824" height="20.966373"/>
          <rect y="877.01971" width="16.0688" x="80.54554" height="20.966373"/>
          <rect y="877.01971" width="16.0688" x="96.708015" height="20.966373"/>
          <rect y="877.01971" width="16.0688" x="216.91615" height="20.966373"/>
          <rect y="877.01971" width="16.0688" x="233.07863" height="20.966373"/>
          <rect y="891.1618" width="16.0688" x="148.22578" height="20.966373"/>
          <rect y="891.1618" width="16.0688" x="164.3882" height="20.966373"/>
          <rect y="891.1618" width="16.0688" x="181.05574" height="20.966373"/>
          <rect y="891.1618" width="16.0688" x="131.55824" height="20.966373"/>
          <rect y="901.76843" width="16.0688" x="80.54554" height="20.966373"/>
          <rect y="901.76843" width="16.0688" x="96.708015" height="20.966373"/>
          <rect y="901.76843" width="16.0688" x="216.91615" height="20.966373"/>
          <rect y="901.76843" width="16.0688" x="233.07863" height="20.966373"/>
          <rect y="916.92072" width="16.0688" x="148.22578" height="20.966373"/>
          <rect y="916.92072" width="16.0688" x="164.3882" height="20.966373"/>
          <rect y="916.92072" width="16.0688" x="181.05574" height="20.966373"/>
          <rect y="916.92072" width="16.0688" x="131.55824" height="20.966373"/>
          <rect y="927.52734" width="16.0688" x="80.54554" height="20.966373"/>
          <rect y="927.52734" width="16.0688" x="96.708015" height="20.966373"/>
          <rect y="927.52734" width="16.0688" x="216.91615" height="20.966373"/>
          <rect y="927.52734" width="16.0688" x="233.07863" height="20.966373"/>
          <rect y="949.75067" width="16.0688" x="80.54554" height="20.966373"/>
          <rect y="949.75067" width="16.0688" x="96.708015" height="20.966373"/>
          <rect y="949.75067" width="16.0688" x="216.91615" height="20.966373"/>
          <rect y="949.75067" width="16.0688" x="233.07863" height="20.966373"/>
          <rect y="1041.1694" width="16.0688" x="148.22578" height="20.966373"/>
          <rect y="1041.1694" width="16.0688" x="164.3882" height="20.966373"/>
          <rect y="1041.1694" width="16.0688" x="181.05574" height="20.966373"/>
          <rect y="1041.1694" width="16.0688" x="131.55824" height="20.966373"/>
          <rect y="1046.2202" width="16.0688" x="80.54554" height="20.966373"/>
          <rect y="1046.2202" width="16.0688" x="96.708015" height="20.966373"/>
          <rect y="1046.2202" width="16.0688" x="216.91615" height="20.966373"/>
          <rect y="1046.2202" width="16.0688" x="233.07863" height="20.966373"/>
          <rect y="1066.9283" width="16.0688" x="148.22578" height="20.966373"/>
          <rect y="1066.9283" width="16.0688" x="164.3882" height="20.966373"/>
          <rect y="1066.9283" width="16.0688" x="181.05574" height="20.966373"/>
          <rect y="1066.9283" width="16.0688" x="131.55824" height="20.966373"/>
          <rect y="1071.9791" width="16.0688" x="80.54554" height="20.966373"/>
          <rect y="1071.9791" width="16.0688" x="96.708015" height="20.966373"/>
          <rect y="1071.9791" width="16.0688" x="216.91615" height="20.966373"/>
          <rect y="1071.9791" width="16.0688" x="233.07863" height="20.966373"/>
          <rect y="1093.6974" width="16.0688" x="148.22578" height="20.966373"/>
          <rect y="1093.6974" width="16.0688" x="164.3882" height="20.966373"/>
          <rect y="1093.6974" width="16.0688" x="181.05574" height="20.966373"/>
          <rect y="1093.6974" width="16.0688" x="131.55824" height="20.966373"/>
          <rect y="1098.7482" width="16.0688" x="80.54554" height="20.966373"/>
          <rect y="1098.7482" width="16.0688" x="96.708015" height="20.966373"/>
          <rect y="1098.7482" width="16.0688" x="216.91615" height="20.966373"/>
          <rect y="1098.7482" width="16.0688" x="233.07863" height="20.966373"/>
          <rect y="1115.9207" width="16.0688" x="148.22578" height="20.966373"/>
          <rect y="1115.9207" width="16.0688" x="164.3882" height="20.966373"/>
          <rect y="1115.9207" width="16.0688" x="181.05574" height="20.966373"/>
          <rect y="1115.9207" width="16.0688" x="131.55824" height="20.966373"/>
          <rect y="1120.9714" width="16.0688" x="80.54554" height="20.966373"/>
          <rect y="1120.9714" width="16.0688" x="96.708015" height="20.966373"/>
          <rect y="1120.9714" width="16.0688" x="216.91615" height="20.966373"/>
          <rect y="1120.9714" width="16.0688" x="233.07863" height="20.966373"/>
          <rect y="1139.1543" width="16.0688" x="148.22578" height="20.966373"/>
          <rect y="1139.1543" width="16.0688" x="164.3882" height="20.966373"/>
          <rect y="1139.1543" width="16.0688" x="181.05574" height="20.966373"/>
          <rect y="1139.1543" width="16.0688" x="131.55824" height="20.966373"/>
          <rect y="1144.2051" width="16.0688" x="80.54554" height="20.966373"/>
          <rect y="1144.2051" width="16.0688" x="96.708015" height="20.966373"/>
          <rect y="1144.2051" width="16.0688" x="216.91615" height="20.966373"/>
          <rect y="1144.2051" width="16.0688" x="233.07863" height="20.966373"/>
          <rect y="1165.9233" width="16.0688" x="148.22578" height="20.966373"/>
          <rect y="1165.9233" width="16.0688" x="164.3882" height="20.966373"/>
          <rect y="1165.9233" width="16.0688" x="181.05574" height="20.966373"/>
          <rect y="1165.9233" width="16.0688" x="131.55824" height="20.966373"/>
          <rect y="1170.9741" width="16.0688" x="80.54554" height="20.966373"/>
          <rect y="1170.9741" width="16.0688" x="96.708015" height="20.966373"/>
          <rect y="1170.9741" width="16.0688" x="216.91615" height="20.966373"/>
          <rect y="1170.9741" width="16.0688" x="233.07863" height="20.966373"/>
          <rect y="1191.6821" width="16.0688" x="148.22578" height="20.966373"/>
          <rect y="1191.6821" width="16.0688" x="164.3882" height="20.966373"/>
          <rect y="1191.6821" width="16.0688" x="181.05574" height="20.966373"/>
          <rect y="1191.6821" width="16.0688" x="131.55824" height="20.966373"/>
          <rect y="1196.7329" width="16.0688" x="80.54554" height="20.966373"/>
          <rect y="1196.7329" width="16.0688" x="96.708015" height="20.966373"/>
          <rect y="1196.7329" width="16.0688" x="216.91615" height="20.966373"/>
          <rect y="1196.7329" width="16.0688" x="233.07863" height="20.966373"/>
          <rect y="1214.9158" width="16.0688" x="148.22578" height="20.966373"/>
          <rect y="1214.9158" width="16.0688" x="164.3882" height="20.966373"/>
          <rect y="1214.9158" width="16.0688" x="181.05574" height="20.966373"/>
          <rect y="1214.9158" width="16.0688" x="131.55824" height="20.966373"/>
          <rect y="1219.9666" width="16.0688" x="80.54554" height="20.966373"/>
          <rect y="1219.9666" width="16.0688" x="96.708015" height="20.966373"/>
          <rect y="1219.9666" width="16.0688" x="216.91615" height="20.966373"/>
          <rect y="1219.9666" width="16.0688" x="233.07863" height="20.966373"/>
          <rect y="1239.1594" width="16.0688" x="148.22578" height="20.966373"/>
          <rect y="1239.1594" width="16.0688" x="164.3882" height="20.966373"/>
          <rect y="1239.1594" width="16.0688" x="181.05574" height="20.966373"/>
          <rect y="1239.1594" width="16.0688" x="131.55824" height="20.966373"/>
          <rect y="1244.2101" width="16.0688" x="83.07093" height="20.966373"/>
          <rect y="1244.2101" width="16.0688" x="99.233414" height="20.966373"/>
          <rect y="1244.2101" width="16.0688" x="213.88576" height="20.966373"/>
          <rect y="1244.2101" width="16.0688" x="230.04811" height="20.966373"/>
          <rect y="1265.996" width="16.0688" x="84.32093" height="20.966373"/>
          <rect y="1265.996" width="16.0688" x="100.48341" height="20.966373"/>
          <rect y="1265.996" width="16.0688" x="211.38564" height="20.966373"/>
          <rect y="1265.996" width="16.0688" x="227.54811" height="20.966373"/>
          <rect y="1287.4246" width="16.0688" x="85.749519" height="20.966373"/>
          <rect y="1287.4246" width="16.0688" x="101.91193" height="20.966373"/>
          <rect y="1287.4246" width="16.0688" x="209.95717" height="20.966373"/>
          <rect y="1287.4246" width="16.0688" x="226.11964" height="20.966373"/>
          <rect y="1309.2103" width="16.0688" x="88.07093" height="20.966373"/>
          <rect y="1309.2103" width="16.0688" x="104.23341" height="20.966373"/>
          <rect y="1309.2103" width="16.0688" x="208.52852" height="20.966373"/>
          <rect y="1309.2103" width="16.0688" x="224.69106" height="20.966373"/>
          <rect y="1332.7817" width="16.0688" x="89.713814" height="20.966373"/>
          <rect y="1332.7817" width="16.0688" x="105.87623" height="20.966373"/>
          <rect y="1332.7817" width="16.0688" x="204.59993" height="20.966373"/>
          <rect y="1332.7817" width="16.0688" x="220.76247" height="20.966373"/>
          <rect y="1353.1389" width="16.0688" x="91.178108" height="20.966373"/>
          <rect y="1353.1389" width="16.0688" x="107.34052" height="20.966373"/>
          <rect y="1353.1389" width="16.0688" x="203.17146" height="20.966373"/>
          <rect y="1353.1389" width="16.0688" x="219.33388" height="20.966373"/>
          <rect y="1266.6594" width="16.0688" x="138.94008" height="20.966373"/>
          <rect y="1266.6594" width="16.0688" x="155.10249" height="20.966373"/>
          <rect y="1266.6594" width="16.0688" x="171.77003" height="20.966373"/>
          <rect y="1290.588" width="16.0688" x="138.94008" height="20.966373"/>
          <rect y="1290.588" width="16.0688" x="155.10249" height="20.966373"/>
          <rect y="1290.588" width="16.0688" x="171.77003" height="20.966373"/>
          <rect y="1317.5522" width="16.0688" x="138.94008" height="20.966373"/>
          <rect y="1317.5522" width="16.0688" x="155.10249" height="20.966373"/>
          <rect y="1317.5522" width="16.0688" x="171.77003" height="20.966373"/>
          <rect y="1341.3022" width="16.0688" x="138.94008" height="20.966373"/>
          <rect y="1341.3022" width="16.0688" x="155.10249" height="20.966373"/>
          <rect y="1341.3022" width="16.0688" x="171.77003" height="20.966373"/>
        </g>
        <rect y="1361.3651" width="47.815086" x="138.72551" height="7.9438004"/>
        <g fill="#fff">
          <rect y="444.68103" width="14.553572" x="213.43495" height="11.875"/>
          <rect y="444.68103" width="14.553572" x="102.31815" height="11.875"/>
          <rect y="1007.8411" width="14.553572" x="102.31815" height="11.875"/>
          <rect y="1007.8411" width="14.553572" x="211.91972" height="11.875"/>
        </g>
      </g>
      <g stroke-width="1.5" fill="#3680ff">
        <g>
          <rect transform="rotate(90)" height="40.225353" width="54.490044" y="-116.38184" x="492.76138"/>
          <rect transform="rotate(90)" height="40.225353" width="54.490044" y="-254.239" x="492.76138"/>
          <rect transform="rotate(90)" height="24.062912" width="42.816368" y="-164.86916" x="948.34021"/>
        </g>
        <rect transform="rotate(90)" height="40.225353" width="29.236231" y="-116.38184" x="977.63464"/>
        <rect transform="rotate(90)" height="40.225353" width="29.236231" y="-253.76259" x="977.63464"/>
        <rect transform="rotate(90)" height="24.062912" width="42.816368" y="-190.58345" x="948.34021"/>
      </g>
      <path stroke-width="1px" d="m253.25748 214.44248-9.78586 0.50508" fill="none"/>
      <rect height="13.889598" width="45.456863" y="194.49197" x="141.38307" stroke-width="1.5"/>
      <rect height="33.082497" width="45.204327" y="220.25085" x="77.23838" stroke-width="1.5"/>
      <g stroke-width="1px">
        <path d="m80.14258 264.44503h7.95496v2.27285h2.14657v1.89403h1.89404v2.52538h5.3033v-2.52538h2.90418v2.65165h10.48034v-2.39911h2.65165v-4.16688h9.47018v-11.61675h-43.31029z"/>
        <path d="m106.59595 254.78545v5.61897h2.08344v2.02031h10.16466v-7.70242h-8.20749v2.52539h-2.2097v-2.65166z" fill="#fff"/>
        <path d="m92.39068 262.04592h-11.74302v-7.19734h9.21764v2.39912h2.77792z" fill="#fff"/>
        <path d="m245.04999 179.21341-9.78586 0.50508" fill="none"/>
      </g>
      <g stroke-width="1.5">
        <rect y="424.53656" width="45.204327" x="77.23838" height="18.082497"/>
        <rect y="424.53656" width="36.632896" x="214.38127" height="18.082497"/>
        <rect y="435.96515" width="56.632896" x="135.09557" height="30.93964"/>
        <rect y="494.53659" width="65.918617" x="132.23845" height="30.93964"/>
        <rect y="1370.63" width="47.142857" x="139.93794" height="32.142857"/>
        <rect y="1427.0586" width="35" x="114.51951" height="88.571426"/>
        <rect y="1428.4872" width="32.857143" x="182.0808" height="88.571426"/>
      </g>
      <g stroke-width="1px">
        <path d="m246.06494 220.96027h-20.9607v-12.62691h-18.309v2.27284h-2.1466v2.27285h2.0203v3.91434h-2.0203v2.0203h2.3991v2.52538h-6.566v1.38896h2.1466v2.14658h14.1421v4.04061h20.8344v-2.02031h2.2729v-2.39911h7.1973z"/>
        <path d="m210.96214 214.77308v-2.27284h1.7677v-2.02031h3.9144v2.14658h2.0203v4.16688h-1.8941v2.14657h-2.1465v-2.27284h-2.1466v-2.02031z" fill="#fff"/>
        <path d="m252.19004 553.10314h-22.0335v-12.62691h-14.0988v2.27285h-1.653v2.27284h1.5557v3.91434h-1.5557v2.0203h1.8474v2.52539h-5.0561v1.38896h1.653v2.14657h10.8901v4.04061h16.0434v-2.02031h1.7502v-2.39911h10.3638z"/>
        <path d="m79.76748 553.10314h22.03356v-12.62691h14.09879v2.27285h1.65296v2.27284h-1.55573v3.91434h1.55573v2.0203h-1.84742v2.52539h5.05612v1.38896h-1.65297v2.14657h-10.8901v4.04061h-16.04346v-2.02031h-1.75019v-2.39911h-10.36372z"/>
      </g>
      <g stroke-width="1.5">
        <rect y="709.57166" width="23.571428" x="84.167122" height="6.4285712"/>
        <rect y="698.85742" width="23.571428" x="154.16713" height="6.4285712"/>
        <rect y="708.50024" width="23.571428" x="223.09572" height="6.4285712"/>
        <rect y="1006.8016" width="23.571428" x="84.167122" height="6.4285712"/>
        <rect y="1028.167" width="23.571428" x="154.16713" height="6.4285712"/>
        <rect y="1005.7302" width="23.571428" x="223.09572" height="6.4285712"/>
        <rect height="15.657365" width="48.992397" y="991.50232" x="140.62547" fill="url(#b)"/>
      </g>
      <g stroke-width="1px" fill="none">
        <path d="m200.65221 222.77289-17.14285-15"/>
        <path d="m147.43793 208.48718-25.71429 17.14285"/>
        <path d="m123.15221 428.84432 14.28572 10.71429"/>
        <path d="m191.00936 439.91575 23.92857-13.57143"/>
        <path d="m192.08079 467.41575 6.42857 32.14286"/>
        <path d="m133.50936 495.98718 5.71428-33.92857"/>
        <path d="m213.8665 552.41575-19.64286-14.28571"/>
        <path d="m114.93793 552.05861 19.28571-13.92857"/>
        <path d="m222.08079 710.2729-20.35715 0.35714-15.35714-15.35714h-43.21429l-20.35714 13.92857h-42.85714"/>
        <path d="m113.85642 977.3602 1.51523-5.55584 25.25382-23.23351h49.49747l24.24366 23.23351 4.29315 4.29315"/>
        <path d="m213.35645 1005.1394-23.73858 1.5152"/>
        <path d="m115.87674 1005.6445 24.24366-0.5051"/>
      </g>
      <g stroke-width="1.5">
        <rect y="1025.1366" width="62.462303" x="133.96407" height="1.8828847"/>
        <rect y="1373.9921" width="23.571428" x="94.268654" height="6.4285712"/>
        <rect y="1373.9921" width="27.10696" x="206.90065" height="7.9438004"/>
      </g>
      <path stroke-width="1px" d="m119.41226 1374.8552h89.90358" fill="none"/>
      <path stroke-width="1px" d="m141.63562 1403.1395 8.08122 14.1421v14.6472" fill="none"/>
      <g stroke-width="1.5">
        <rect y="1418.9438" width="30.137419" x="182.657" height="7.9438004"/>
        <rect y="1418.9438" width="33.167877" x="114.97678" height="7.9438004"/>
        <rect y="940.28381" width="62.462303" x="133.96407" height="7.9438"/>
        <rect y="532.18219" width="62.462303" x="133.96407" height="7.9438"/>
        <rect y="542.28369" width="28.369656" x="149.36888" height="7.9438"/>
      </g>
      <g stroke-width="1px" fill="none">
        <path d="m142.1407 539.45907 8.08122 8.5863"/>
        <path d="m177.2435 547.28775 12.37437-6.81853"/>
        <path d="m245.68133 215.2001 7.07107-2.52538"/>
        <path d="m236.08488 179.33968 8.08122-2.0203"/>
        <path d="m85.18398 215.70517-7.07107-2.52538"/>
        <path d="m94.78043 179.84476-8.08122-2.02031"/>
      </g>
      <path d="m165.15625 21.375c-14.62204 0.807702-35.46875 35.59375-35.46875 35.59375-8.51065 14.74087-28.78205 70.21098-31.8125 80.3125-3.03046 10.10152-24.75 79.89565-24.75 109.59375 0 9.7754-0.75 24.25-0.75 24.25v972.8125c0 4.8214 6.625 67.1473 6.625 74.4687 0 7.3215 8.00893 65.893 8.1875 68.75 0.17857 2.8571 7.32143 68.5848 7.5 73.4063 0.17857 4.8214 6.4375 52.4867 7.6875 54.0937 1.25 1.6071 9.09821 7.143 24.8125 12.5 15.71429 5.3571 37.5 6.25 37.5 6.25s21.75445-0.8929 37.46875-6.25c15.7143-5.357 23.5625-10.8929 24.8125-12.5 1.25-1.607 7.509-49.2723 7.6875-54.0937 0.1786-4.8215 7.3215-70.5492 7.5-73.4063 0.1786-2.857 8.21875-61.4286 8.21875-68.75s6.59375-69.6473 6.59375-74.4687v-972.8125s-0.71875-14.14848-0.71875-24.25c0-37.24438-21.7195-99.49222-24.75-109.59375-3.0304-10.10152-21.2338-61.11699-31.8125-80.3125 0 0-21.21685-35.34121-33.84375-35.59375-0.22885-0.004577-0.4554-0.012821-0.6875 0zm0.46875 6.1875c0.20924-0.012742 0.38744-0.004549 0.59375 0 11.3832 0.251 30.53125 35.375 30.53125 35.375 9.53673 19.07839 25.95559 69.80387 28.6875 79.84375 2.73201 10.0399 25.15625 71.88911 25.15625 108.90625 0 10.03989 0.65625 24.125 0.65625 24.125s-2.84375 962.083-2.84375 966.875c0 4.7919-5.96875 66.7231-5.96875 74 0 7.2767-7.24525 65.5041-7.40625 68.3437-0.16093 2.8397-6.58898 68.1453-6.75 72.9376-0.16093 4.7918-5.81063 52.1839-6.9375 53.7812-1.12688 1.5973-8.2085 7.0818-22.375 12.4062-14.16649 5.3244-33.78125 6.2188-33.78125 6.2188s-19.61479-0.8944-33.78125-6.2188c-14.1665-5.3244-21.24813-10.8089-22.375-12.4062-1.12688-1.5973-6.77652-48.9893-6.9375-53.7812-0.161-4.7923-6.58901-70.0979-6.75-72.9376-0.16098-2.8396-7.40625-61.067-7.40625-68.3437 0-7.2769-7.96875-69.2081-7.96875-74 0-4.792-1.03125-966.875-1.03125-966.875s0.65625-14.40924 0.65625-24.125c0-29.5169 22.61177-98.86635 25.34375-108.90625 2.73196-10.03988 21.01511-65.19281 28.6875-79.84375 0 0 18.81819-34.572224 32-35.375z" fill="#f6f6f6"/>
      <path stroke-width="1px" d="m233.81204 139.94373h-138.13836s24.61966-67.07166 30.55711-78.28682c6.81854-12.87944 21.46575-41.16371 40.15357-41.16371 12.37437 0 27.4276 22.33878 39.08027 46.46701 12.88655 26.68312 28.34741 72.98352 28.34741 72.98352z" fill="#fff"/>
      <g stroke-width="1px" fill="none">
        <path d="m219.04507 122.95147h-8.57143l-8.74828-5.05083-4.80735-17.94127h12.66278z"/>
        <path d="m197.08079 98.30861h11.07143l-7.74011-22.41815-3.05568 3.15232-5.08282 7.17905 3.22409 12.03248z"/>
        <path d="m165.47364 58.48718v15.89286h3.75s10.53572 4.64285 12.32143 5.35714c1.78572 0.71429 10.17857 6.42857 10.17857 6.42857l4.82143-7.14286 3.21429-3.21428s-18.39286-10.17857-22.14286-12.67857-12.14286-4.64286-12.14286-4.64286z"/>
        <path d="m111.90221 122.95147h8.57143l8.74828-5.05083 4.80735-17.94127h-12.66278z"/>
        <path d="m133.86649 98.30861h-11.07143l7.74011-22.41815 3.05568 3.15232 5.08282 7.17905-3.22409 12.03248z"/>
        <path d="m165.47364 58.48718v15.89286h-3.75s-10.53572 4.64285-12.32143 5.35714c-1.78572 0.71429-10.17857 6.42857-10.17857 6.42857l-4.82143-7.14286-3.21429-3.21428s18.39286-10.17857 22.14286-12.67857 12.14286-4.64286 12.14286-4.64286z"/>
        <path d="m235.07473 173.27877h-26.76904l-3.53554 4.54568h-49.49747v-6.06091h-18.18275v10.10152h-26.26396v-12.6269h-14.14214"/>
        <path d="m157.29298 177.31938v-37.88072"/>
        <path d="m137.59501 172.23634v-32.29261"/>
        <path d="m229.01381 156.61125h-25.25381l-0.53891-2.01124-3.39566-0.90987v-13.74641"/>
      </g>
      <rect height="22.857143" width="42.142857" y="412.41577" x="143.50935" stroke-width="1.5"/>
      <g stroke-width="1px" fill="none">
        <path d="m152.06698 1431.1594h30.80965"/>
        <path d="m229.84872 1438.2305h-15.65736"/>
        <path d="m113.68118 1437.2203h-14.64721"/>
      </g>
      <g stroke-width="1px" fill="#af4eff">
        <path d="m243.98163 177.62793s-15.63352 5.49982-17.02248 8.78282c-1.38896 3.28299 3.15673 20.32932 4.04061 23.23351 0.88389 2.90419 2.65165 4.29315 3.40927 4.41941 0.75761 0.12627 5.55584 1.6415 6.31345 1.6415 0.75762 0 11.85814-2.16452 11.85814-2.16452"/>
        <path d="m85.81532 177.82445s18.30902 5.80838 19.69798 9.09137c1.38896 3.283-3.15673 20.32932-4.04061 23.23351-0.88389 2.90419-2.65165 4.29315-3.40927 4.41942-0.75761 0.12627-5.55584 1.6415-6.31345 1.6415-0.75762 0-14.77348-1.89404-14.77348-1.89404"/>
        <path d="m71.43002 483.90068 9.09136-0.50508s6.06093-2.0203 9.09138-3.03045c3.03046-1.01016 3.03046-2.52539 3.03046-2.52539l-0.6061-25.25381s-1.81827-2.0203-5.45481-2.0203c-3.63655 0-7.27311-1.01016-7.27311-1.01016h-7.87918"/>
        <path d="m256.79301 483.90068-7.57614-0.50508s-5.05077-2.0203-7.57615-3.03045c-2.52538-1.01016-2.52538-2.52539-2.52538-2.52539l0.50508-25.25381s1.51523-2.0203 4.54568-2.0203c3.03046 0 6.06092-1.01016 6.06092-1.01016h6.56599"/>
        <path d="m257.43793 1032.2372h-8.21429s-2.67856-5-2.85714-10.3572c-0.17857-5.3571 2.67857-9.1071 2.67857-9.1071h7.67857"/>
        <path d="m72.07276 1032.2372h8.21429s2.67856-5 2.85714-10.3572c0.17857-5.3571-2.67857-9.1071-2.67857-9.1071h-7.67857"/>
        <path d="m238.19185 1428.8984-6.14757-0.5051s-5.05077-2.0203-7.57615-3.0304c-2.52538-1.0102-2.52538-2.5254-2.52538-2.5254l0.50508-25.2538s1.51523-2.0203 4.54568-2.0203c3.03046 0 6.06092-1.0102 6.06092-1.0102h8.5863"/>
        <path d="m90.62292 1428.8984 4.54567-0.5051s6.06093-2.0203 9.09138-3.0304c3.03046-1.0102 3.03046-2.5254 3.03046-2.5254l-0.6061-25.2538s-1.81827-2.0203-5.45481-2.0203c-3.63655 0-7.27311-1.0102-7.27311-1.0102l-4.84872 0.5051"/>
      </g>
    </g>
    <g font-size="22.827318px" font-family="Arial,sans-serif" style="text-anchor:middle;text-align:center">
      <text y="317.07666" x="89.22879">A</text>
      <text y="317.07666" x="110.96458">B</text>
      <text y="262.25073" x="154.09384">E</text>
      <text y="262.25073" x="175.92993">F</text>
      <text y="276.77945" x="218.18434">J</text>
      <text y="276.91876" x="238.76656">K</text>
      <text y="605.10785" x="89.383636">A</text>
      <text y="605.10785" x="111.11942">B</text>
      <text y="596.53644" x="153.37955">E</text>
      <text y="596.53644" x="175.21564">F</text>
      <text y="605.68286" x="219.9521">J</text>
      <text y="605.8222" x="240.53426">K</text>
      <text y="743.14001" x="88.591087">A</text>
      <text y="743.14001" x="104.52506">B</text>
      <text y="733.54358" x="148.06749">C</text>
      <text y="733.54358" x="164.06277">E</text>
      <text y="758.79736" x="139.32513">D</text>
      <text y="758.79736" x="155.98154">E</text>
      <text y="758.79736" x="172.01576">F</text>
      <text y="743.00067" x="225.53015">J</text>
      <text y="743.14001" x="240.3105">K</text>
      <text y="733.54358" x="180.60207">F</text>
      <text y="758.79736" x="189.19046">G</text>
      <text y="264.58508" x="279.32788">1</text>
      <text y="311.05209" x="279.32788">2</text>
      <text y="359.03433" x="279.32788">3</text>
      <text y="408.02673" x="279.32788">4</text>
      <text y="595.9151" x="279.32788">5</text>
      <text y="645.4126" x="279.32788">6</text>
      <text y="697.43542" x="279.32788">7</text>
      <text y="745.92273" x="279.32788">19</text>
      <text y="770.67151" x="279.32788">20</text>
      <text y="796.43042" x="279.32788">21</text>
      <text y="820.16901" x="279.32788">22</text>
      <text y="846.93805" x="279.32788">23</text>
      <text y="872.69696" x="279.32788">24</text>
      <text y="895.93048" x="279.32788">25</text>
      <text y="920.17413" x="279.32788">26</text>
      <text y="944.92285" x="279.32788">27</text>
      <text y="972.70203" x="279.32788">28</text>
      <text y="1064.1208" x="279.32788">29</text>
      <text y="1090.3848" x="279.32788">30</text>
      <text y="1116.6488" x="279.32788">31</text>
      <text y="1138.8721" x="279.32788">32</text>
      <text y="1164.6311" x="279.32788">33</text>
      <text y="1191.9052" x="279.32788">34</text>
      <text y="1217.1589" x="279.32788">35</text>
      <text y="1239.8875" x="279.32788">36</text>
      <text y="1262.6158" x="279.32788">37</text>
      <text y="1287.3646" x="276.80249">38</text>
      <text y="1309.0829" x="276.80249">39</text>
      <text y="1330.8011" x="272.25681">40</text>
      <text y="1356.0549" x="268.72128">41</text>
      <text y="1377.2682" x="267.71112">42</text>
    </g>
  </g>
  <g>
    <g stroke="#000">
      <rect height="28.21792" width="28.21792" y="1557.2826" x="20.766048" stroke-width="1.5194265" fill="#a436ff"/>
      <rect height="28.21792" width="28.21792" y="1590.9315" x="20.766048" stroke-width="1.5194265" fill="#3680ff"/>
      <rect height="27.857143" width="27.857143" y="1624.7607" x="20.946438" stroke-width="1.5"/>
    </g>
    <g font-size="32px" font-family="Arial,sans-serif">
      <switch allowReorder="yes">
        <text y="1582.8446" x="52.374996" systemLanguage="de">Ausgang</text>
        <text y="1582.8446" x="52.374996" systemLanguage="fr">Sorties</text>
        <text y="1582.8446" x="52.374996" systemLanguage="mk">Излези</text>
        <text y="1582.8446" x="52.374996" systemLanguage="pt">Saídas</text>
        <text y="1582.8446" x="52.374996">Exits</text>
      </switch>
      <switch allowReorder="yes">
        <text y="1616.5013" x="52.374996" systemLanguage="de">Toilette</text>
        <text y="1616.5013" x="52.374996" systemLanguage="fr">Toilettes</text>
        <text y="1616.5013" x="52.374996" systemLanguage="mk">Тоалети</text>
        <text y="1616.5013" x="52.374996" systemLanguage="pt">Banheiro</text>
        <text y="1616.5013" x="52.374996">Toilet</text>
      </switch>
      <switch allowReorder="yes">
        <text y="1650.1503" x="52.374996" systemLanguage="de">Kombüse/Stauraum</text>
        <text y="1650.1503" x="52.374996" systemLanguage="fr">Cuisine/Casiers</text>
        <text y="1650.1503" x="52.374996" systemLanguage="mk">Остава</text>
        <text y="1650.1503" x="52.374996" systemLanguage="pt">Copa/Armazém</text>
        <text y="1650.1503" x="52.374996">Galley/Storage</text>
      </switch>
    </g>
  </g>
</svg>
